<?xml version="1.0" encoding="UTF-8" standalone="no"?>
<!-- Created with Inkscape (http://www.inkscape.org/) -->

<svg
   xmlns:dc="http://purl.org/dc/elements/1.1/"
   xmlns:cc="http://creativecommons.org/ns#"
   xmlns:rdf="http://www.w3.org/1999/02/22-rdf-syntax-ns#"
   xmlns:svg="http://www.w3.org/2000/svg"
   xmlns="http://www.w3.org/2000/svg"
   xmlns:sodipodi="http://sodipodi.sourceforge.net/DTD/sodipodi-0.dtd"
   xmlns:inkscape="http://www.inkscape.org/namespaces/inkscape"
   width="18.521891mm"
   height="18.520973mm"
   viewBox="0 0 18.52189 18.520972"
   version="1.1"
   id="svg8"
   inkscape:version="0.92.4 (5da689c313, 2019-01-14)"
   sodipodi:docname="mark.svg">
  <defs
     id="defs2" />
  <sodipodi:namedview
     id="base"
     pagecolor="#ffffff"
     bordercolor="#666666"
     borderopacity="1.0"
     inkscape:pageopacity="0.0"
     inkscape:pageshadow="2"
     inkscape:zoom="5.6"
     inkscape:cx="66.311947"
     inkscape:cy="26.703086"
     inkscape:document-units="mm"
     inkscape:current-layer="layer1"
     showgrid="false"
     inkscape:window-width="1920"
     inkscape:window-height="1001"
     inkscape:window-x="-9"
     inkscape:window-y="-9"
     inkscape:window-maximized="1" />
  <metadata
     id="metadata5">
    <rdf:RDF>
      <cc:Work
         rdf:about="">
        <dc:format>image/svg+xml</dc:format>
        <dc:type
           rdf:resource="http://purl.org/dc/dcmitype/StillImage" />
        <dc:title></dc:title>
      </cc:Work>
    </rdf:RDF>
  </metadata>
  <g
     inkscape:label="Layer 1"
     inkscape:groupmode="layer"
     id="layer1"
     transform="translate(-69.618506,-173.09875)">
    <path
       style="fill:#000000;stroke-width:0.18817332"
       d="m 78.544574,191.40383 c -0.243019,-0.18253 -0.324843,-0.61007 -0.365268,-1.9085 l -0.05213,-1.67327 -0.815009,-0.24016 c -0.787242,-0.23197 -1.537159,-0.73899 -1.537159,-1.03926 0,-0.0801 0.132084,-0.27765 0.293521,-0.43908 0.262365,-0.26237 0.364676,-0.2638 0.963848,-0.0134 1.166197,0.48727 1.188884,0.4603 1.188884,-1.41348 v -1.69356 h -1.693558 c -1.884972,0 -1.93557,0.0442 -1.380759,1.2077 0.257042,0.53903 0.269706,0.70789 0.07104,0.94726 -0.53321,0.64247 -1.170763,0.11961 -1.540705,-1.26357 l -0.238412,-0.89139 h -1.725579 c -1.915186,0 -2.352748,-0.20669 -1.96627,-0.92884 0.187254,-0.34988 0.382268,-0.38837 1.967937,-0.38837 h 1.760085 l 0.115576,-0.61156 c 0.126954,-0.67178 0.771335,-1.83469 1.016616,-1.83469 0.08524,0 0.31769,0.11898 0.516566,0.2644 0.348194,0.25461 0.349527,0.2897 0.03597,0.94725 -0.569095,1.1934 -0.523451,1.2346 1.367934,1.2346 h 1.693561 v -1.69356 c 0,-1.88497 -0.04424,-1.93557 -1.207706,-1.38076 -0.539023,0.25704 -0.707879,0.26971 -0.947251,0.071 -0.160214,-0.13297 -0.291299,-0.35965 -0.291299,-0.50374 0,-0.33541 1.042628,-0.97394 1.834691,-1.12363 l 0.611565,-0.11558 v -1.65918 c 0,-1.85473 0.264398,-2.42444 0.953934,-2.0554 0.319175,0.17081 0.363277,0.40811 0.363277,1.9545 v 1.76008 l 0.611563,0.11558 c 0.792063,0.14969 1.834689,0.78822 1.834689,1.12363 0,0.14409 -0.131082,0.37077 -0.291296,0.50374 -0.239371,0.19866 -0.408229,0.18599 -0.947253,-0.071 -1.163448,-0.55481 -1.207706,-0.50421 -1.207706,1.38076 v 1.69356 h 1.69356 c 1.873946,0 1.918816,-0.0375 1.433716,-1.19852 -0.27909,-0.66795 -0.11663,-1.24773 0.34963,-1.24773 0.40813,0 1.03263,0.92722 1.1597,1.72186 l 0.11583,0.72439 h 1.75698 c 1.58253,0 1.77761,0.0385 1.96482,0.38837 0.38378,0.71709 -0.0533,0.92884 -1.91711,0.92884 -1.17972,0 -1.69641,0.0697 -1.74387,0.23522 -0.55195,1.92504 -1.20128,2.65411 -1.72542,1.93731 -0.1879,-0.25697 -0.18147,-0.4453 0.0327,-0.95789 0.49263,-1.17903 0.4508,-1.21464 -1.426972,-1.21464 h -1.69356 v 1.69356 c 0,1.58179 0.02546,1.69356 0.385687,1.69356 0.212132,0 0.624297,-0.12338 0.915927,-0.27419 0.43326,-0.22405 0.590177,-0.23038 0.857904,-0.0346 0.725004,0.53014 0.09131,1.11961 -1.830215,1.70249 -0.281225,0.0853 -0.329303,0.34253 -0.329303,1.76172 0,1.95399 -0.254007,2.43397 -0.993939,1.87823 z"
       id="path3951"
       inkscape:connector-curvature="0" />
  </g>
</svg>
